<?xml version="1.0"?>
<svg xmlns="http://www.w3.org/2000/svg" xmlns:xlink="http://www.w3.org/1999/xlink" xmlns:svgjs="http://svgjs.com/svgjs" version="1.1" width="512" height="512" x="0" y="0" viewBox="0 0 189.059 189.059" style="enable-background:new 0 0 512 512" xml:space="preserve" class=""><g>
<g xmlns="http://www.w3.org/2000/svg">
	<path style="" d="M169.771,115.528c-0.062-1.119-0.136-2.226-0.231-3.328c-0.083-1.081,3.251-1.307,4.378-4.74   c8.357-25.325-21.118-29.675-32.315-33.651c0.462-8.483,0.877-20.352,0.441-31.58c0,0-0.945-20.748-5.196-30.764   c-3.028-7.16-13.141-12.982-27.12-11.111c0,0,1.896,11.525,2.28,24.728c0.146,5.112-0.883,16.409-1.26,21.465   c-0.61,8.202-9.733,12.953-9.912,12.459c-16.787,6.858-25.759,14.691-28.717,31.198c-19.142-4.294-59.935-1.273-59.935-1.273   l-0.872,77.067c0,0,43.901,10,63.534,3.606c-0.147,9.926,18.363,17.663,33.224,19.102c27.323,1.575,32.016-2.488,36.719-4.734   c0.688-0.33,6.264-1.732,6.902-1.732c4.464,0.036,7.162-3.454,7.629-8.199c0.078-0.841-1.775-3.37-1.292-4.059   c0.589-0.834,1.15-1.675,1.69-2.534c0.562-0.883,1.365,0.21,4.394-0.662c6.215-1.806,8.043-9.617,6.415-15.045   c-0.227-0.745-3.917-2.908-3.717-3.658c0.231-0.836,0.452-1.675,0.662-2.52c0.319-1.298,2.404,0.603,5.249-2.495   c5.292-5.778,6.115-17.28,3.812-21.763C174.002,116.349,169.834,116.705,169.771,115.528z" fill="#df643a" data-original="#222220" class=""/>
</g>
<g xmlns="http://www.w3.org/2000/svg">
</g>
<g xmlns="http://www.w3.org/2000/svg">
</g>
<g xmlns="http://www.w3.org/2000/svg">
</g>
<g xmlns="http://www.w3.org/2000/svg">
</g>
<g xmlns="http://www.w3.org/2000/svg">
</g>
<g xmlns="http://www.w3.org/2000/svg">
</g>
<g xmlns="http://www.w3.org/2000/svg">
</g>
<g xmlns="http://www.w3.org/2000/svg">
</g>
<g xmlns="http://www.w3.org/2000/svg">
</g>
<g xmlns="http://www.w3.org/2000/svg">
</g>
<g xmlns="http://www.w3.org/2000/svg">
</g>
<g xmlns="http://www.w3.org/2000/svg">
</g>
<g xmlns="http://www.w3.org/2000/svg">
</g>
<g xmlns="http://www.w3.org/2000/svg">
</g>
<g xmlns="http://www.w3.org/2000/svg">
</g>
</g></svg>
